<svg xmlns="http://www.w3.org/2000/svg" version="1.1" xmlns:xlink="http://www.w3.org/1999/xlink" xmlns:svgjs="http://svgjs.dev/svgjs" viewBox="0 0 1920 1080" class="overflow-hidden rounded-md drop-shadow-lg transition duration-300" style="overflow: hidden; height: 85vh;"><rect width="1920" height="1080" fill="#f7bf3d"/><g clip-path="url(&quot;#SvgjsClipPath3264&quot;)"><g transform="matrix(0.8546165492990033,0.7695001973126869,-0.7695001973126869,0.8546165492990033,549.9950229578717,-633.2024139345222)"><path d="M0,-1080C-11.025719759935384,-1002.1605956107098,-71.34154126122924,-808.7105314684162,-66.1543185596123,-612.9635736642588C-60.967095857995375,-417.21661586010134,8.939978254570914,-115.75302951728838,31.12333620970159,94.48174682494457C53.306694164832265,304.7165231671775,67.80669374930834,490.56700831558453,66.94582917117177,648.4450843891389C66.0849645930352,806.3231604626932,48.7807051557529,892.1311279009961,25.958148740882137,1041.7502032662708C3.135592326011377,1191.3692786315455,-65.66315119457244,1359.7845704584986,-69.9895093180528,1546.1595365807868C-74.31586744153316,1732.534502703075,-11.664918219675465,2057.693256096798,0,2160L 1920 2160 L 1920 -1080 Z" fill="url(&quot;#SvgjsLinearGradient3258&quot;)"/><path d="M320,-1080C304.76278238242406,-980.52391098584,209.7613594066843,-717.9152396138945,228.57669429454438,-483.14346591503994C247.39202918240446,-248.37169221618532,423.04423990561804,119.82110310474113,432.8920093271604,328.63064219312776C442.73977874870275,537.4401812815144,311.8737483171355,568.6244417702352,287.6633108237985,769.7137686152798C263.4528733304615,970.8030954603245,282.23993617110494,1303.4522313659422,287.6293843671385,1535.1666032633955C293.0188325631721,1766.8809751608487,314.6048973945231,2055.8611005438993,320,2160L 1920 2160 L 1920 -1080 Z" fill="url(&quot;#SvgjsLinearGradient3259&quot;)"/><path d="M640,-1080C625.1302716168689,-991.2780984035135,550.131206953896,-692.6419684050218,550.7816297012132,-547.6685904210809C551.4320524485304,-402.69521243714,642.8455633733081,-369.9569366732793,643.9025364839034,-210.15973209635456C644.9595095944987,-50.36252751942979,570.6602693899913,235.83708378834584,557.1234683647848,411.11463704046776C543.5866673395783,586.3921902925897,543.695036504751,689.5986283431449,562.6817303326648,841.5055874163768C581.6684241605785,993.4125464896086,661.6758533994825,1166.2138245434592,671.0436313322671,1322.556391479859C680.4114092650516,1478.898958416259,624.0623364847498,1639.9870542814188,618.888397929372,1779.5609890347755C613.7144593739941,1919.1349237881323,636.4813996548953,2096.5934981724627,640,2160L 1920 2160 L 1920 -1080 Z" fill="url(&quot;#SvgjsLinearGradient3260&quot;)"/><path d="M960,-1080C967.7031607879414,-954.7325155619834,1003.8968411096607,-531.7160478436349,1006.2189647276487,-328.39509337190054C1008.5410883456366,-125.07413890016619,991.1480284787309,-76.3023782280543,973.9327417079272,139.92572683040615C956.7174549371235,356.1538318888666,911.3179105836368,751.8471605725485,902.9272441028265,968.9735369788622C894.5365776220162,1186.0999133851758,914.0766168402031,1244.179574764765,923.5887428230653,1442.6839852682879C933.1008688059276,1641.1883957718107,953.9314571371775,2040.447330878048,960,2160L 1920 2160 L 1920 -1080 Z" fill="url(&quot;#SvgjsLinearGradient3261&quot;)"/><path d="M1280,-1080C1282.2396712206537,-960.0338670383603,1278.2076360178035,-593.693308605179,1293.4380273239217,-360.20320223016193C1308.66841863004,-126.7130958551449,1386.969420398566,130.4387394763763,1371.382347836709,320.94063825010215C1355.795275274852,511.442537023828,1205.8035275557522,574.7052663004226,1199.9155919527802,782.8081904121932C1194.0276563498082,990.9111145239638,1322.7073328776737,1340.026214656091,1336.054734218877,1569.5581829207256C1349.4021355600803,1799.0901511853601,1289.3424557031462,2061.5930304867875,1280,2160L 1920 2160 L 1920 -1080 Z" fill="url(&quot;#SvgjsLinearGradient3262&quot;)"/><path d="M1600,-1080C1584.5578322144881,-1002.3763631499521,1504.9136206661474,-780.6712217800598,1507.3469932869293,-614.2581788997124C1509.7803659077113,-447.8451360193651,1601.1001909707686,-262.233970777276,1614.600235724691,-81.52174271791579C1628.1002804786133,99.19048534144444,1581.8065953792002,287.9835364463179,1588.3472618104636,470.01518945644887C1594.887928241727,652.0468424665798,1654.3780621159644,801.4358224700464,1653.8442343122706,1010.6681753428702C1653.3104065085768,1219.900528215694,1594.1183340403452,1533.85400258387,1585.1442949883,1725.4093066933915C1576.170255936255,1916.964610802913,1597.5240491647166,2087.568217782232,1600,2160L 1920 2160 L 1920 -1080 Z" fill="url(&quot;#SvgjsLinearGradient3263&quot;)"/></g></g><defs><linearGradient x1="0.1" y1="0" x2="0" y2="1" id="SvgjsLinearGradient3258"><stop stop-color="#f7bf3d" offset="0"/><stop stop-color="#f7a03d" offset="0"/></linearGradient><linearGradient x1="0.1" y1="0" x2="0" y2="1" id="SvgjsLinearGradient3259"><stop stop-color="#f8c651" offset="0"/><stop stop-color="#f8aa51" offset="0.16666666666666666"/></linearGradient><linearGradient x1="0.1" y1="0" x2="0" y2="1" id="SvgjsLinearGradient3260"><stop stop-color="#f9cc65" offset="0"/><stop stop-color="#f9b365" offset="0.3333333333333333"/></linearGradient><linearGradient x1="0.1" y1="0" x2="0" y2="1" id="SvgjsLinearGradient3261"><stop stop-color="#f9d379" offset="0"/><stop stop-color="#f9be79" offset="0.5"/></linearGradient><linearGradient x1="0.1" y1="0" x2="0" y2="1" id="SvgjsLinearGradient3262"><stop stop-color="#fad98c" offset="0"/><stop stop-color="#fac78c" offset="0.6666666666666666"/></linearGradient><linearGradient x1="0.1" y1="0" x2="0" y2="1" id="SvgjsLinearGradient3263"><stop stop-color="#fbe0a0" offset="0"/><stop stop-color="#fbd1a0" offset="0.8333333333333334"/></linearGradient><clipPath id="SvgjsClipPath3264"><rect width="1920" height="1080"/></clipPath></defs></svg>