<?xml version="1.0"?>
<!DOCTYPE svg PUBLIC "-//W3C//DTD SVG 1.1//EN" "http://www.w3.org/Graphics/SVG/1.1/DTD/svg11.dtd">
<svg version='1.1' width='99px' height='111px' xmlns='http://www.w3.org/2000/svg' xmlns:xlink='http://www.w3.org/1999/xlink'>
	<g transform="translate(49.3525,55.4)">
		<path d="M 38.5 -21.7 Q 36.95 -18.45 35.45 -15.45 Q 32.65 -23.45 24.1 -28.95 Q 21.55 -30.55 18.5 -31.95 Q 14.65 -33.75 10.4 -35 Q 10.05 -35.1 9.75 -35.15 Q 7.45 -35.8 5.95 -36.05 Q 6.15 -36.35 6.35 -36.65 L 6.4 -36.7 Q 10.3 -42.35 17.85 -49.25 Q 21.85 -52.9 25.05 -55.4 L 29.25 -54.3 Q 34.1 -52.9 37.4 -51.15 Q 40.65 -49.45 44.35 -46.3 Q 46.2 -44.75 47.4 -43.55 Q 46.85 -39.95 41.1 -27.3 Q 39.8 -24.45 38.5 -21.7 Z M 14.95 -35.2 Q 17.8 -34.1 20.4 -32.85 Q 32.6 -26.95 35.45 -18.8 L 40.1 -29.15 Q 44.9 -40 45.3 -42.85 Q 44 -43.3 41.8 -43.8 Q 37.45 -44.7 33 -44.85 Q 18.65 -45.15 8.8 -37.1 Q 10.2 -36.8 12.3 -36.1 Q 13.65 -35.65 14.95 -35.2 Z" fill="#EA4747"/>
		<path d="M 14.95 -35.2 Q 13.65 -35.65 12.3 -36.1 Q 10.2 -36.8 8.8 -37.1 Q 18.65 -45.15 33 -44.85 Q 37.45 -44.7 41.8 -43.8 Q 44 -43.3 45.3 -42.85 Q 44.9 -40 40.1 -29.15 L 35.45 -18.8 Q 32.6 -26.95 20.4 -32.85 Q 17.8 -34.1 14.95 -35.2 Z" fill="#D30F0F"/>
		<path d="M 47.45 -1.7 L 46.75 -1.25 L 46.5 -2.45 L 44.8 -0.15 Q 44.65 0 44.55 0.2 Q 40.15 2.95 35.95 5.25 Q 36.3 -0.8 36.1 -4.75 Q 35.8 -11.4 33.95 -16.2 Q 31.85 -21.6 27.5 -25.95 Q 25.95 -27.45 24.1 -28.95 Q 32.65 -23.45 35.45 -15.45 Q 36.95 -18.45 38.5 -21.7 Q 41.8 -17.8 44 -13.15 Q 46.5 -7.9 47.45 -1.7 Z M 15.65 38.15 Q 15.85 38.35 16 38.55 Q 20.85 43.7 23.8 45.9 L 24.7 46.5 L 25.45 45.75 Q 28.75 42.55 33.1 37.9 Q 41.1 29.4 46.35 22.65 Q 45.25 29.4 43.65 34.5 Q 43.55 34.75 43.45 35.05 L 43.4 35.3 Q 43.4 35.35 43.4 35.4 Q 43.35 35.5 43.3 35.55 Q 43.2 35.85 43.1 36.15 Q 40.4 43.5 36.25 47.8 Q 35.75 48.3 35.25 48.8 Q 30.35 53.25 22.75 54.65 Q 16.2 55.9 5.7 55.05 Q -4.05 54.3 -13.3 52.1 Q -22.5 49.9 -29.9 46.55 Q -35.3 44.1 -39.2 41.35 Q -40.75 40.2 -42.1 38.95 Q -42.45 38.7 -42.75 38.35 Q -47.05 34.25 -47.9 29.85 Q -49.5 21.75 -48.45 15.9 Q -48.45 15.85 -48.45 15.8 Q -48.4 15.75 -48.4 15.65 Q -48.1 13.85 -47.55 12.5 L -47.05 11.5 Q -47.05 11.65 -47 11.85 Q -46.7 13.1 -46.05 14.9 Q -45.6 16.25 -45 17.55 Q -45.15 17.9 -45.35 18.25 Q -46.3 20.35 -46.7 23.05 Q -46.8 23.45 -46.55 23.75 Q -46.3 24.1 -45.95 24.15 Q -45.55 24.2 -45.25 23.95 Q -44.9 23.75 -44.85 23.35 Q -44.55 21.35 -43.9 19.75 Q -43.05 21.35 -42.05 22.85 Q -40 25.9 -37.5 28.45 Q -37.55 28.75 -37.6 29.1 Q -38.05 31.8 -37.6 35 Q -37.55 35.4 -37.25 35.65 Q -36.95 35.9 -36.55 35.85 Q -36.2 35.75 -35.9 35.45 Q -35.7 35.15 -35.75 34.75 Q -36.05 32.2 -35.8 30 Q -31.55 33.75 -26.05 36 Q -26.05 36.2 -26.05 36.35 Q -26.2 39.35 -25.8 42.95 Q -25.8 43.3 -25.45 43.55 Q -25.15 43.8 -24.75 43.75 Q -24.4 43.7 -24.15 43.4 Q -23.9 43.1 -23.95 42.7 Q -24.3 39.5 -24.2 36.75 Q -21.55 37.7 -18.7 38.35 Q -16.2 38.9 -13.8 39.3 Q -13.8 39.35 -13.8 39.45 Q -13.9 42.55 -13.45 46.1 Q -13.45 46.5 -13.1 46.75 Q -12.8 47 -12.4 46.95 Q -12 46.9 -11.8 46.55 Q -11.55 46.25 -11.6 45.9 Q -12 42.55 -11.9 39.6 Q -6.75 40.4 -2 40.55 Q -2 40.65 -2 40.75 Q -1.4 43.9 -0.05 47.5 Q 0.1 47.85 0.5 48.05 Q 0.85 48.2 1.2 48.05 Q 1.55 47.9 1.75 47.55 Q 1.9 47.2 1.75 46.8 Q 0.45 43.5 -0.1 40.55 Q 0.85 40.55 1.8 40.55 Q 9.55 40.3 15.65 38.15 Z" fill="#DDDDDD"/>
		<path d="M 45.35 4.25 Q 46.1 7.4 46.45 9.65 Q 46.5 10.05 46.55 10.45 Q 46.6 10.75 46.65 11.05 L 46.65 11.15 Q 47.25 16.55 45.7 19.35 L 45.65 19.35 Q 45.55 19.55 45.35 19.8 Q 39.95 26.95 31.3 36.15 Q 27.45 40.2 24.5 43.15 Q 21.85 41.05 17.85 36.8 Q 16.95 35.8 15.95 34.7 Q 14.05 32.65 12.15 30.4 L 12.1 30.4 L 11.7 29.9 Q 23.8 24.85 36.1 13.1 L 36.15 13.1 Q 36.2 13.05 36.25 13 L 36.3 12.95 Q 36.3 12.9 36.35 12.9 L 37.25 12.05 L 37.05 12.2 Q 39.65 9.7 42 7.05 Q 42.05 7.05 42.05 7 L 42.1 6.95 Q 43.05 5.9 44 4.85 Q 44.6 4.1 45.15 3.45 Q 45.25 3.8 45.35 4.25 Z M 38.4 6.8 Q 38.85 6.55 39.25 6.3 Q 37 8.75 34.55 11.1 Q 34.45 11.15 34.4 11.25 Q 29.9 15.55 25.45 18.95 Q 16.2 24.15 7.55 25.9 Q 2.15 26.95 -2.4 26.6 Q -4.8 26.35 -6.05 25.95 L -5.25 23.55 Q -4.15 23.9 -2.2 24.1 Q 2.05 24.4 7.05 23.4 Q 20.3 20.75 34.8 9.7 Q 36.6 8.3 38.4 6.8 Z" fill="#508E0E"/>
		<path d="M 25.45 18.95 Q 17.25 25.1 9.15 28.2 L 7.5 28.85 L 8 29.45 Q 7.2 29.55 6.4 29.65 Q 2.75 30.05 -0.7 30.1 L -0.75 30.1 Q -6.1 30.2 -10.95 29.45 Q -16.45 28.6 -21.35 26.65 Q -21.8 26.5 -22.15 26.3 Q -27.65 24.05 -32.05 20.5 L -32.05 20.45 Q -36 17.25 -39.15 13 Q -41.2 10.3 -42.85 7.15 Q -42.5 5.9 -41.5 4.55 Q -39.35 1.55 -35.45 0.45 Q -35.2 0.85 -34.9 1.3 L -34.9 1.25 Q -33.55 3.25 -31.4 5.55 Q -25.25 12.1 -16.9 15.45 Q -8.95 18.65 0.25 18.55 Q 4.5 18.55 9.05 17.8 Q 21.9 15.65 36.45 7.85 Q 37.45 7.35 38.4 6.8 Q 36.6 8.3 34.8 9.7 Q 20.3 20.75 7.05 23.4 Q 2.05 24.4 -2.2 24.1 Q -4.15 23.9 -5.25 23.55 L -6.05 25.95 Q -4.8 26.35 -2.4 26.6 Q 2.15 26.95 7.55 25.9 Q 16.2 24.15 25.45 18.95 Z" fill="#5BA519"/>
		<path d="M 43.1 36.15 Q 41.75 40.05 40.05 43 Q 38.35 45.85 36.25 47.8 Q 40.4 43.5 43.1 36.15 Z M 15.65 38.15 Q 9.55 40.3 1.8 40.55 Q 0.85 40.55 -0.1 40.55 Q -0.1 40.5 -0.1 40.4 Q -0.9 36.15 -0.05 32.65 Q 3.25 32.55 6.7 32.15 Q 8.3 31.95 9.95 31.75 L 10.2 32.05 Q 12.15 34.3 14.05 36.45 Q 14.9 37.3 15.65 38.15 Z M -48.45 15.9 Q -49.5 21.75 -47.9 29.85 Q -47.05 34.25 -42.75 38.35 Q -46.1 35.85 -47.65 32.4 Q -49.25 28.75 -49.35 22.95 Q -49.4 19.25 -48.45 15.9 Z M -47 11.85 Q -46.15 10.1 -45 8.45 Q -43.55 11.25 -41.8 13.7 Q -43.75 15.15 -45 17.55 Q -45.6 16.25 -46.05 14.9 Q -46.7 13.1 -47 11.85 Z M -34.15 -2.35 L -34.2 -2.45 L -34.45 -2.4 Q -34.2 -4.5 -34.15 -4.85 Q -33.8 -6.95 -33.1 -9 Q -33.6 -7.2 -33.85 -5.2 Q -34.1 -3.7 -34.15 -2.35 Z M -26.3 -20.95 Q -26.3 -20.8 -26.3 -20.65 L -27.2 -19.65 Q -27.25 -19.6 -27.3 -19.55 Q -27.15 -19.75 -27.05 -19.9 Z M -25.8 -23.45 Q -25.75 -23.45 -25.7 -23.45 Q -24.8 -23.65 -22.65 -23.25 Q -24.4 -23.4 -25.85 -23.25 Q -25.85 -23.35 -25.8 -23.45 Z M 35.95 5.25 Q 35.6 5.45 35.25 5.65 Q 21.95 12.8 10.05 15.05 Q 11 14.65 11.85 14.2 Q 21.75 9.35 22.75 -1.25 Q 23.65 -10.1 16.75 -14.9 Q 15.85 -15.5 14.85 -16.05 Q 14.75 -16.95 14.45 -17.6 Q 13.7 -19.35 11.15 -19.7 Q 9.9 -19.85 7.15 -19.6 Q 5.4 -19.45 3.3 -18.95 Q 0.75 -18.3 -1.85 -17.25 Q -4.35 -16.2 -6.2 -15.85 Q -6.85 -15.7 -10.5 -15.2 Q -11.85 -15 -12.7 -15.35 Q -13.45 -15.6 -14.05 -16.4 Q -14.4 -16.75 -15.3 -18.2 Q -16.2 -19.65 -17 -20.65 Q -18.05 -21.95 -19.8 -22.6 Q -19.1 -22.45 -18.6 -22.25 L -17.75 -21.9 Q -16.8 -23.05 -14.7 -24.7 Q -10.5 -28 -4.8 -30.65 Q 1.35 -33.5 8.65 -34.7 Q 9.55 -34.85 10.4 -35 Q 14.65 -33.75 18.5 -31.95 Q 21.55 -30.55 24.1 -28.95 Q 25.95 -27.45 27.5 -25.95 Q 31.85 -21.6 33.95 -16.2 Q 35.8 -11.4 36.1 -4.75 Q 36.3 -0.8 35.95 5.25 Z M -2 40.55 Q -6.75 40.4 -11.9 39.6 Q -11.9 39.55 -11.9 39.5 Q -11.8 35.3 -10.65 32.05 Q -6.5 32.65 -2 32.65 Q -2.75 36.25 -2 40.55 Z M -22.4 28.95 L -22.35 29 L -22.3 29 Q -17.65 30.8 -12.55 31.75 Q -13.65 35.1 -13.8 39.3 Q -16.2 38.9 -18.7 38.35 Q -21.55 37.7 -24.2 36.75 Q -24.2 36.6 -24.15 36.45 Q -23.9 32.05 -22.4 28.95 Z M -24.15 28.25 Q -25.75 31.5 -26.05 36 Q -31.55 33.75 -35.8 30 Q -35.75 29.7 -35.7 29.4 Q -35.15 25.75 -32.95 23 Q -28.95 26.1 -24.15 28.25 Z M -40.65 15.2 Q -37.85 18.9 -34.4 21.8 Q -36.75 24.65 -37.5 28.45 Q -40 25.9 -42.05 22.85 Q -43.05 21.35 -43.9 19.75 Q -43.75 19.4 -43.6 19.05 Q -42.55 16.65 -40.65 15.2 Z" fill="#EFEFEF"/>
		<path d="M -17.45 -26.65 Q -16.85 -26.65 -16.4 -27.1 Q -15.6 -27.95 -14.25 -28.8 Q -11.45 -30.7 -8.45 -31.05 Q -7.85 -31.15 -7.5 -31.6 Q -7.1 -32.1 -7.2 -32.7 Q -7.25 -33.3 -7.75 -33.7 Q -8.25 -34.05 -8.85 -34 Q -12.45 -33.55 -15.85 -31.3 Q -17.55 -30.2 -18.55 -29.15 Q -19 -28.7 -18.95 -28.1 Q -18.95 -27.45 -18.5 -27.05 Q -18.1 -26.65 -17.45 -26.65 Z M 6.4 -36.7 L 6.35 -36.65 Q 6.15 -36.35 5.95 -36.05 Q 7.45 -35.8 9.75 -35.15 Q 10.05 -35.1 10.4 -35 Q 9.55 -34.85 8.65 -34.7 Q 1.35 -33.5 -4.8 -30.65 Q -10.5 -28 -14.7 -24.7 Q -16.8 -23.05 -17.75 -21.9 L -18.6 -22.25 Q -19.1 -22.45 -19.8 -22.6 Q -20.85 -22.9 -22.35 -23.2 Q -22.5 -23.2 -22.65 -23.25 Q -24.8 -23.65 -25.7 -23.45 Q -25.75 -23.45 -25.8 -23.45 Q -26.15 -23.35 -26.15 -23.2 Q -26.25 -24.45 -25.25 -26.3 Q -23.85 -28.8 -20.9 -30.9 Q -20.15 -31.5 -19.25 -31.95 Q -18.5 -32.4 -17.6 -32.85 Q -10.8 -36.4 -3.7 -37 Q 0.7 -37.35 6.4 -36.7 Z" fill="#E2E2E2"/>
		<path d="M -19.8 -22.6 Q -18.05 -21.95 -17 -20.65 Q -16.2 -19.65 -15.3 -18.2 Q -14.4 -16.75 -14.05 -16.4 Q -13.45 -15.6 -12.7 -15.35 Q -11.85 -15 -10.5 -15.2 Q -6.85 -15.7 -6.2 -15.85 Q -4.35 -16.2 -1.85 -17.25 Q 0.75 -18.3 3.3 -18.95 Q 5.4 -19.45 7.15 -19.6 Q 9.9 -19.85 11.15 -19.7 Q 13.7 -19.35 14.45 -17.6 Q 14.75 -16.95 14.85 -16.05 Q 13.45 -16.75 11.95 -17.3 Q 10.6 -17.75 9.7 -17.9 Q 2.2 -17.3 -3.05 -15.05 Q -3.65 -14.75 -6.9 -13.2 Q -9.05 -12.15 -10.7 -11.65 Q -12.5 -11.1 -13.55 -11.65 Q -14.45 -12.1 -15.15 -13.55 Q -15.55 -14.4 -16.35 -16.5 Q -17.2 -18.5 -18.15 -19.8 Q -19.65 -21.75 -23.05 -21.45 Q -24.75 -21.3 -26.15 -20.8 L -26.3 -20.65 Q -26.3 -20.8 -26.3 -20.95 Q -26.35 -22.5 -26.15 -23.2 Q -26 -23.2 -25.85 -23.25 Q -24.4 -23.4 -22.65 -23.25 Q -22.5 -23.2 -22.35 -23.2 Q -20.85 -22.9 -19.8 -22.6 Z" fill="#A5A5A5"/>
		<path d="M -17.45 -26.65 Q -18.1 -26.65 -18.5 -27.05 Q -18.95 -27.45 -18.95 -28.1 Q -19 -28.7 -18.55 -29.15 Q -17.55 -30.2 -15.85 -31.3 Q -12.45 -33.55 -8.85 -34 Q -8.25 -34.05 -7.75 -33.7 Q -7.25 -33.3 -7.2 -32.7 Q -7.1 -32.1 -7.5 -31.6 Q -7.85 -31.15 -8.45 -31.05 Q -11.45 -30.7 -14.25 -28.8 Q -15.6 -27.95 -16.4 -27.1 Q -16.85 -26.65 -17.45 -26.65 Z M 14.85 -16.05 Q 15.85 -15.5 16.75 -14.9 Q 23.65 -10.1 22.75 -1.25 Q 21.75 9.35 11.85 14.2 Q 11 14.65 10.05 15.05 Q 9.35 15.15 8.65 15.3 Q 4.3 16 0.25 16.05 Q -8.45 16.15 -15.95 13.1 Q -23.8 9.95 -29.55 3.85 Q -31.55 1.7 -32.8 -0.15 Q -33.35 -0.9 -33.7 -1.6 L -34.15 -2.35 Q -34.1 -3.7 -33.85 -5.2 Q -33.6 -7.2 -33.1 -9 Q -32.3 -11.9 -30.9 -14.15 Q -28.75 -17.7 -27.3 -19.55 Q -27.25 -19.6 -27.2 -19.65 L -26.3 -20.65 L -26.15 -20.8 Q -24.75 -21.3 -23.05 -21.45 Q -19.65 -21.75 -18.15 -19.8 Q -17.2 -18.5 -16.35 -16.5 Q -15.55 -14.4 -15.15 -13.55 Q -14.45 -12.1 -13.55 -11.65 Q -12.5 -11.1 -10.7 -11.65 Q -9.05 -12.15 -6.9 -13.2 Q -3.65 -14.75 -3.05 -15.05 Q 2.2 -17.3 9.7 -17.9 Q 10.6 -17.75 11.95 -17.3 Q 13.45 -16.75 14.85 -16.05 Z M -26.3 -5.05 Q -24.9 -7.7 -23.35 -7.85 Q -21.85 -7.75 -20.8 -5.65 Q -20.4 -4.95 -20.15 -4 L -19.95 -3.25 Q -19.8 -2.1 -19.3 -1.05 Q -18.1 1.65 -15.85 1.35 Q -15.3 1.3 -14.1 0.5 L -14.15 0.55 Q -14.05 0.5 -12 -0.9 Q -8.95 -3.05 -6.9 -3.7 Q -3.7 -4.7 -1.4 -2.75 Q 1.05 -0.55 2.5 4.95 Q 2.6 5.35 2.95 5.55 Q 3.25 5.75 3.65 5.65 Q 4.05 5.55 4.25 5.2 Q 4.4 4.85 4.35 4.5 Q 2.7 -1.75 -0.15 -4.2 Q -3.15 -6.9 -7.45 -5.5 Q -9.75 -4.8 -13.1 -2.45 Q -15 -1.15 -15.05 -1.1 L -15.1 -1.05 Q -15.8 -0.65 -16.1 -0.55 Q -17 -0.55 -17.6 -1.8 Q -17.95 -2.65 -18.1 -3.55 L -18.3 -4.5 L -18.35 -4.55 Q -18.65 -5.6 -19.1 -6.5 Q -20.75 -9.85 -23.35 -9.75 Q -25.95 -9.85 -28 -5.9 Q -28.9 -4.15 -29.35 -2.4 Q -29.45 -2 -29.25 -1.7 Q -29.05 -1.35 -28.7 -1.25 Q -28.3 -1.15 -27.95 -1.35 Q -27.65 -1.55 -27.5 -1.9 Q -27.1 -3.45 -26.3 -5.05 Z M -7.7 7.3 Q -7.7 6.3 -8.4 5.6 Q -9.1 4.9 -10.1 4.9 Q -11.1 4.9 -11.8 5.6 Q -12.55 6.3 -12.55 7.3 Q -12.55 8.3 -11.8 9.05 Q -11.1 9.75 -10.1 9.75 Q -9.1 9.75 -8.4 9.05 Q -7.7 8.3 -7.7 7.3 Z M -23.15 5.2 Q -23 5.2 -22.9 5.2 Q -21.85 5.2 -21.15 4.5 Q -20.4 3.8 -20.4 2.75 Q -20.4 2.65 -20.45 2.5 Q -20.4 2.4 -20.4 2.25 Q -20.4 1 -21.3 0.15 Q -22.15 -0.7 -23.4 -0.7 Q -24.6 -0.7 -25.5 0.15 Q -26.35 1 -26.35 2.25 Q -26.35 3.5 -25.5 4.35 Q -24.6 5.2 -23.4 5.2 Q -23.25 5.2 -23.15 5.2 Z" fill="#FFFFFF"/>
		<path d="M -26.3 -5.05 Q -27.1 -3.45 -27.5 -1.9 Q -27.65 -1.55 -27.95 -1.35 Q -28.3 -1.15 -28.7 -1.25 Q -29.05 -1.35 -29.25 -1.7 Q -29.45 -2 -29.35 -2.4 Q -28.9 -4.15 -28 -5.9 Q -25.95 -9.85 -23.35 -9.75 Q -20.75 -9.85 -19.1 -6.5 Q -18.65 -5.6 -18.35 -4.55 L -18.3 -4.5 L -18.1 -3.55 Q -17.95 -2.65 -17.6 -1.8 Q -17 -0.55 -16.1 -0.55 Q -15.8 -0.65 -15.1 -1.05 L -15.05 -1.1 Q -15 -1.15 -13.1 -2.45 Q -9.75 -4.8 -7.45 -5.5 Q -3.15 -6.9 -0.15 -4.2 Q 2.7 -1.75 4.35 4.5 Q 4.4 4.85 4.25 5.2 Q 4.05 5.55 3.65 5.65 Q 3.25 5.75 2.95 5.55 Q 2.6 5.35 2.5 4.95 Q 1.05 -0.55 -1.4 -2.75 Q -3.7 -4.7 -6.9 -3.7 Q -8.95 -3.05 -12 -0.9 Q -14.05 0.5 -14.15 0.55 L -14.1 0.5 Q -15.3 1.3 -15.85 1.35 Q -18.1 1.65 -19.3 -1.05 Q -19.8 -2.1 -19.95 -3.25 L -20.15 -4 Q -20.4 -4.95 -20.8 -5.65 Q -21.85 -7.75 -23.35 -7.85 Q -24.9 -7.7 -26.3 -5.05 Z M -7.7 7.3 Q -7.7 8.3 -8.4 9.05 Q -9.1 9.75 -10.1 9.75 Q -11.1 9.75 -11.8 9.05 Q -12.55 8.3 -12.55 7.3 Q -12.55 6.3 -11.8 5.6 Q -11.1 4.9 -10.1 4.9 Q -9.1 4.9 -8.4 5.6 Q -7.7 6.3 -7.7 7.3 Z M -20.45 2.5 Q -20.4 2.65 -20.4 2.75 Q -20.4 3.8 -21.15 4.5 Q -21.85 5.2 -22.9 5.2 Q -23 5.2 -23.15 5.2 Q -24 5.15 -24.65 4.5 Q -25.35 3.8 -25.35 2.75 Q -25.35 1.75 -24.65 1 Q -23.9 0.3 -22.9 0.3 Q -21.85 0.3 -21.15 1 Q -20.5 1.65 -20.45 2.5 Z" fill="#000000"/>
		<path d="M -41.8 13.7 Q -43.55 11.25 -45 8.45 Q -45.15 8.15 -45.3 7.9 L -45.5 7.5 L -45.4 7.05 Q -45.1 5.2 -43.6 3.1 Q -40.7 -1 -35.1 -2.25 L -34.45 -2.4 L -34.2 -2.45 L -34.15 -2.35 L -33.7 -1.6 Q -33.35 -0.9 -32.8 -0.15 Q -31.55 1.7 -29.55 3.85 Q -23.8 9.95 -15.95 13.1 Q -8.45 16.15 0.25 16.05 Q 4.3 16 8.65 15.3 Q 9.35 15.15 10.05 15.05 Q 21.95 12.8 35.25 5.65 Q 35.6 5.45 35.95 5.25 Q 40.15 2.95 44.55 0.2 Q 44.65 0 44.8 -0.15 L 46.5 -2.45 L 46.75 -1.25 L 47.45 -1.7 L 47.7 -1.9 L 48.15 -0.15 Q 48.75 2.5 49.1 5.6 Q 49.15 6.4 49.2 7.1 Q 49.35 9.3 49.15 10.95 Q 49.9 17.4 47.85 20.65 L 47.85 20.6 Q 47.65 21 47.4 21.3 L 47.35 21.3 Q 46.85 21.95 46.35 22.65 Q 41.1 29.4 33.1 37.9 Q 28.75 42.55 25.45 45.75 L 24.7 46.5 L 23.8 45.9 Q 20.85 43.7 16 38.55 Q 15.85 38.35 15.65 38.15 Q 14.9 37.3 14.05 36.45 Q 12.15 34.3 10.2 32.05 L 9.95 31.75 Q 8.3 31.95 6.7 32.15 Q 3.25 32.55 -0.05 32.65 Q -0.4 32.65 -0.7 32.65 Q -1.35 32.65 -2 32.65 Q -6.5 32.65 -10.65 32.05 Q -11 32 -11.35 31.95 Q -11.95 31.85 -12.55 31.75 Q -17.65 30.8 -22.3 29 L -22.35 29 L -22.4 28.95 Q -22.75 28.8 -23.1 28.65 L -23.15 28.65 Q -23.65 28.45 -24.15 28.25 Q -28.95 26.1 -32.95 23 Q -33.3 22.7 -33.65 22.45 Q -34.05 22.1 -34.4 21.8 Q -37.85 18.9 -40.65 15.2 Q -40.95 14.85 -41.2 14.55 Q -41.5 14.1 -41.8 13.7 Z M 45.35 4.25 Q 45.25 3.8 45.15 3.45 Q 44.6 4.1 44 4.85 Q 43.05 5.9 42.1 6.95 L 42.05 7 Q 42.05 7.05 42 7.05 Q 39.65 9.7 37.05 12.2 L 37.25 12.05 L 36.35 12.9 Q 36.3 12.9 36.3 12.95 L 36.25 13 Q 36.2 13.05 36.15 13.1 L 36.1 13.1 Q 23.8 24.85 11.7 29.9 L 12.1 30.4 L 12.15 30.4 Q 14.05 32.65 15.95 34.7 Q 16.95 35.8 17.85 36.8 Q 21.85 41.05 24.5 43.15 Q 27.45 40.2 31.3 36.15 Q 39.95 26.95 45.35 19.8 Q 45.55 19.55 45.65 19.35 L 45.7 19.35 Q 47.25 16.55 46.65 11.15 L 46.65 11.05 Q 46.6 10.75 46.55 10.45 Q 46.5 10.05 46.45 9.65 Q 46.1 7.4 45.35 4.25 Z M 38.4 6.8 Q 37.45 7.35 36.45 7.85 Q 21.9 15.65 9.05 17.8 Q 4.5 18.55 0.25 18.55 Q -8.95 18.65 -16.9 15.45 Q -25.25 12.1 -31.4 5.55 Q -33.55 3.25 -34.9 1.25 L -34.9 1.3 Q -35.2 0.85 -35.45 0.45 Q -39.35 1.55 -41.5 4.55 Q -42.5 5.9 -42.85 7.15 Q -41.2 10.3 -39.15 13 Q -36 17.25 -32.05 20.45 L -32.05 20.5 Q -27.65 24.05 -22.15 26.3 Q -21.8 26.5 -21.35 26.65 Q -16.45 28.6 -10.95 29.45 Q -6.1 30.2 -0.75 30.1 L -0.7 30.1 Q 2.75 30.05 6.4 29.65 Q 7.2 29.55 8 29.45 L 7.5 28.85 L 9.15 28.2 Q 17.25 25.1 25.45 18.95 Q 29.9 15.55 34.4 11.25 Q 34.45 11.15 34.55 11.1 Q 37 8.75 39.25 6.3 Q 38.85 6.55 38.4 6.8 Z" fill="#CCCCCC"/>
		<path d="M -2 40.55 Q -2.75 36.25 -2 32.65 Q -1.35 32.65 -0.7 32.65 Q -0.4 32.65 -0.05 32.65 Q -0.9 36.15 -0.1 40.4 Q -0.1 40.5 -0.1 40.55 Q 0.45 43.5 1.75 46.8 Q 1.9 47.2 1.75 47.55 Q 1.55 47.9 1.2 48.05 Q 0.85 48.2 0.5 48.05 Q 0.1 47.85 -0.05 47.5 Q -1.4 43.9 -2 40.75 Q -2 40.65 -2 40.55 Z M -37.5 28.45 Q -36.75 24.65 -34.4 21.8 Q -34.05 22.1 -33.65 22.45 Q -33.3 22.7 -32.95 23 Q -35.15 25.75 -35.7 29.4 Q -35.75 29.7 -35.8 30 Q -36.05 32.2 -35.75 34.75 Q -35.7 35.15 -35.9 35.45 Q -36.2 35.75 -36.55 35.85 Q -36.95 35.9 -37.25 35.65 Q -37.55 35.4 -37.6 35 Q -38.05 31.8 -37.6 29.1 Q -37.55 28.75 -37.5 28.45 Z M -24.15 28.25 Q -23.65 28.45 -23.15 28.65 L -23.1 28.65 Q -22.75 28.8 -22.4 28.95 Q -23.9 32.05 -24.15 36.45 Q -24.2 36.6 -24.2 36.75 Q -24.3 39.5 -23.95 42.7 Q -23.9 43.1 -24.15 43.4 Q -24.4 43.7 -24.75 43.75 Q -25.15 43.8 -25.45 43.55 Q -25.8 43.3 -25.8 42.95 Q -26.2 39.35 -26.05 36.35 Q -26.05 36.2 -26.05 36 Q -25.75 31.5 -24.15 28.25 Z M -13.8 39.3 Q -13.65 35.1 -12.55 31.75 Q -11.95 31.85 -11.35 31.95 Q -11 32 -10.65 32.05 Q -11.8 35.3 -11.9 39.5 Q -11.9 39.55 -11.9 39.6 Q -12 42.55 -11.6 45.9 Q -11.55 46.25 -11.8 46.55 Q -12 46.9 -12.4 46.95 Q -12.8 47 -13.1 46.75 Q -13.45 46.5 -13.45 46.1 Q -13.9 42.55 -13.8 39.45 Q -13.8 39.35 -13.8 39.3 Z M -41.8 13.7 Q -41.5 14.1 -41.2 14.55 Q -40.95 14.85 -40.65 15.2 Q -42.55 16.65 -43.6 19.05 Q -43.75 19.4 -43.9 19.75 Q -44.55 21.35 -44.85 23.35 Q -44.9 23.75 -45.25 23.95 Q -45.55 24.2 -45.95 24.15 Q -46.3 24.1 -46.55 23.75 Q -46.8 23.45 -46.7 23.05 Q -46.3 20.35 -45.35 18.25 Q -45.15 17.9 -45 17.55 Q -43.75 15.15 -41.8 13.7 Z" fill="#333333"/>
	</g>
</svg>
